<mxfile host="app.diagrams.net" modified="2024-05-12T10:03:46.358Z" agent="Mozilla/5.0 (Windows NT 10.0; Win64; x64) AppleWebKit/537.36 (KHTML, like Gecko) Chrome/124.0.0.0 Safari/537.36" version="24.4.0" etag="850gb7fhn7pX9eV2MXtR" type="github">
  <diagram name="Page-1" id="ZzYsAC3rjcYSaRFwanUf">
    <mxGraphModel>
      <root>
        <mxCell id="0" />
        <mxCell id="1" parent="0" />
      </root>
    </mxGraphModel>
  </diagram>
</mxfile>
